<svg xmlns="http://www.w3.org/2000/svg" width="1600" height="560" viewBox="0 0 1600 560" role="img" aria-labelledby="title desc">
  <title id="title">Deals68 Investor Cover</title>
  <desc id="desc">Abstract global investment network in navy and gold.</desc>
  <defs>
    <linearGradient id="bg" x1="0" x2="1" y1="0" y2="1">
      <stop offset="0" stop-color="#061b35"/>
      <stop offset="0.55" stop-color="#10395f"/>
      <stop offset="1" stop-color="#0d6288"/>
    </linearGradient>
    <radialGradient id="glow" cx="75%" cy="30%" r="65%">
      <stop offset="0" stop-color="#f2b51d" stop-opacity="0.32"/>
      <stop offset="0.55" stop-color="#1badea" stop-opacity="0.15"/>
      <stop offset="1" stop-color="#061b35" stop-opacity="0"/>
    </radialGradient>
    <pattern id="grid" width="64" height="64" patternUnits="userSpaceOnUse">
      <path d="M64 0H0V64" fill="none" stroke="#9fdaf4" stroke-opacity="0.08"/>
    </pattern>
    <filter id="blur"><feGaussianBlur stdDeviation="18"/></filter>
  </defs>
  <rect width="1600" height="560" fill="url(#bg)"/>
  <rect width="1600" height="560" fill="url(#glow)"/>
  <rect width="1600" height="560" fill="url(#grid)"/>
  <g opacity="0.32" fill="none" stroke="#9fdaf4" stroke-width="2">
    <ellipse cx="1110" cy="282" rx="315" ry="190"/>
    <ellipse cx="1110" cy="282" rx="250" ry="190"/>
    <ellipse cx="1110" cy="282" rx="120" ry="190"/>
    <path d="M795 282h630M835 185h550M835 379h550"/>
  </g>
  <g fill="#f2b51d">
    <circle cx="900" cy="206" r="7"/>
    <circle cx="1040" cy="356" r="6"/>
    <circle cx="1190" cy="164" r="7"/>
    <circle cx="1328" cy="316" r="6"/>
  </g>
  <g stroke="#f2b51d" stroke-opacity="0.7" stroke-width="2" fill="none">
    <path d="M900 206l140 150 150-192 138 152"/>
  </g>
  <g transform="translate(1290 82)" opacity="0.9">
    <circle cx="88" cy="88" r="86" fill="#ffffff" fill-opacity="0.06" stroke="#ffffff" stroke-opacity="0.18"/>
    <path d="M48 116c20-30 57-38 81-13 12 12 19 29 23 49M64 58c0-20 15-36 34-36s34 16 34 36-15 36-34 36-34-16-34-36Z" fill="none" stroke="#ffffff" stroke-width="5" stroke-linecap="round"/>
  </g>
  <circle cx="1380" cy="120" r="110" fill="#f2b51d" fill-opacity="0.08" filter="url(#blur)"/>
</svg>
