<svg xmlns="http://www.w3.org/2000/svg" viewBox="0 0 1600 560" role="img" aria-labelledby="title desc">
  <title id="title">Deals68 investor cover</title>
  <desc id="desc">Abstract global investment network in Deals68 navy, blue and gold.</desc>
  <defs>
    <linearGradient id="bg" x1="0" y1="0" x2="1" y2="1">
      <stop offset="0" stop-color="#0F2A4A"/>
      <stop offset="0.58" stop-color="#123D68"/>
      <stop offset="1" stop-color="#1596CC"/>
    </linearGradient>
    <radialGradient id="glow" cx="78%" cy="18%" r="72%">
      <stop offset="0" stop-color="#32B9EE" stop-opacity=".65"/>
      <stop offset=".58" stop-color="#1BADEA" stop-opacity=".10"/>
      <stop offset="1" stop-color="#0F2A4A" stop-opacity="0"/>
    </radialGradient>
    <linearGradient id="gold" x1="0" y1="0" x2="1" y2="0">
      <stop offset="0" stop-color="#D99C00"/>
      <stop offset=".5" stop-color="#F2B51D"/>
      <stop offset="1" stop-color="#FFD86B"/>
    </linearGradient>
    <filter id="soft" x="-20%" y="-20%" width="140%" height="140%">
      <feGaussianBlur stdDeviation="18"/>
    </filter>
  </defs>
  <rect width="1600" height="560" fill="url(#bg)"/>
  <rect width="1600" height="560" fill="url(#glow)"/>
  <circle cx="1260" cy="84" r="190" fill="#FFFFFF" opacity=".05"/>
  <circle cx="1420" cy="430" r="260" fill="#F2B51D" opacity=".09" filter="url(#soft)"/>
  <g opacity=".18" stroke="#BFEAFF" fill="none" stroke-width="2">
    <path d="M860 84c166-84 428-57 574 74 127 114 139 260 31 351"/>
    <path d="M930 126c132-62 337-38 450 62 98 86 111 193 31 280"/>
    <ellipse cx="1180" cy="274" rx="250" ry="140"/>
    <path d="M930 274h500M1180 134v280M1000 174c76 66 76 134 0 200M1360 174c-76 66-76 134 0 200"/>
  </g>
  <g stroke="url(#gold)" stroke-width="5" fill="none" stroke-linecap="round" stroke-linejoin="round">
    <path d="M760 420c94-38 163-96 221-177 50 49 99 70 154 76 63 7 125-13 201-73"/>
    <path d="M1303 244h36v36"/>
  </g>
  <g fill="#FFFFFF" opacity=".95">
    <circle cx="760" cy="420" r="8"/>
    <circle cx="981" cy="243" r="8"/>
    <circle cx="1135" cy="319" r="8"/>
    <circle cx="1336" cy="247" r="8"/>
  </g>
  <g opacity=".22" fill="#FFFFFF">
    <rect x="90" y="350" width="72" height="150" rx="6"/>
    <rect x="178" y="310" width="92" height="190" rx="6"/>
    <rect x="288" y="382" width="64" height="118" rx="6"/>
    <rect x="368" y="260" width="110" height="240" rx="6"/>
    <rect x="496" y="330" width="82" height="170" rx="6"/>
    <rect x="596" y="292" width="112" height="208" rx="6"/>
  </g>
  <path d="M0 502h1600" stroke="#FFFFFF" stroke-opacity=".18"/>
</svg>
